<?xml version="1.0" encoding="UTF-8" standalone="no"?>
<svg
   xmlns:dc="http://purl.org/dc/elements/1.1/"
   xmlns:cc="http://creativecommons.org/ns#"
   xmlns:rdf="http://www.w3.org/1999/02/22-rdf-syntax-ns#"
   xmlns:svg="http://www.w3.org/2000/svg"
   xmlns="http://www.w3.org/2000/svg"
   xmlns:sodipodi="http://sodipodi.sourceforge.net/DTD/sodipodi-0.dtd"
   xmlns:inkscape="http://www.inkscape.org/namespaces/inkscape"
   preserveAspectRatio="xMidYMid"
   width="180.875"
   height="19.719"
   viewBox="0 0 180.875 19.719"
   id="svg2"
   version="1.1"
   inkscape:version="0.91 r13725"
   sodipodi:docname="pex logo.svg">
  <metadata
     id="metadata12">
    <rdf:RDF>
      <cc:Work
         rdf:about="">
        <dc:format>image/svg+xml</dc:format>
        <dc:type
           rdf:resource="http://purl.org/dc/dcmitype/StillImage" />
        <dc:title></dc:title>
      </cc:Work>
    </rdf:RDF>
  </metadata>
  <sodipodi:namedview
     pagecolor="#ffffff"
     bordercolor="#666666"
     borderopacity="1"
     objecttolerance="10"
     gridtolerance="10"
     guidetolerance="10"
     inkscape:pageopacity="0"
     inkscape:pageshadow="2"
     inkscape:window-width="1920"
     inkscape:window-height="1018"
     id="namedview10"
     showgrid="false"
     inkscape:zoom="4.5824699"
     inkscape:cx="106.45247"
     inkscape:cy="15.196083"
     inkscape:window-x="-8"
     inkscape:window-y="-8"
     inkscape:window-maximized="1"
     inkscape:current-layer="svg2" />
  <defs
     id="defs4">
    <style
       id="style6">
      .cls-1 {
        fill: #fff;
        fill-rule: evenodd;
      }
    </style>
  </defs>
  <path
     id="path4150"
     d="M 53.916,4.01 C 53.799,3.482 53.397,3.219 52.71,3.219 c -0.319,0 -0.66,0.034 -1.025,0.102 l -0.464,3.56 C 52.719,7.135 53.597,6.713 53.858,5.616 53.933,5.3 53.97,4.997 53.97,4.706 53.97,4.414 53.952,4.182 53.916,4.01 Z m -1.928,3.525 -0.376,0 c -0.14,0 -0.295,-0.006 -0.464,-0.019 l -0.249,2.109 0.957,0.142 -0.039,0.424 -2.651,0 0.043,-0.42 0.723,-0.146 0.786,-6.299 -0.649,-0.112 0.058,-0.493 1.236,0 1.391,-0.083 c 1.468,0 2.212,0.634 2.232,1.904 0,0.026 0,0.054 0,0.083 0,0.882 -0.293,1.594 -0.879,2.134 -0.56,0.517 -1.266,0.776 -2.119,0.776 z m 7.507,2.754 c -0.423,0 -0.623,-0.213 -0.601,-0.64 C 58.911,9.37 58.949,9.064 59.009,8.732 59.069,8.4 59.112,8.163 59.136,8.023 59.161,7.883 59.189,7.73 59.222,7.562 59.254,7.394 59.283,7.223 59.31,7.047 59.375,6.65 59.407,6.339 59.407,6.114 59.407,5.89 59.392,5.727 59.363,5.626 59.334,5.525 59.293,5.448 59.241,5.396 59.163,5.322 59.047,5.284 58.892,5.284 c -0.155,0 -0.305,0.032 -0.452,0.095 -0.146,0.064 -0.293,0.151 -0.439,0.262 -0.316,0.237 -0.594,0.533 -0.835,0.888 l -0.488,3.662 -0.948,0 0.943,-7.236 -0.576,-0.21 0.083,-0.405 1.298,-0.205 0.254,0.131 -0.464,3.477 c 0.43,-0.576 0.912,-0.955 1.446,-1.138 0.185,-0.061 0.368,-0.092 0.549,-0.092 0.181,0 0.339,0.025 0.474,0.075 0.135,0.051 0.25,0.134 0.344,0.252 0.202,0.241 0.303,0.623 0.303,1.147 0,0.29 -0.036,0.619 -0.108,0.986 l -0.141,0.753 -0.127,0.776 c -0.088,0.553 -0.12,0.884 -0.095,0.991 0.024,0.108 0.059,0.161 0.105,0.161 0.113,0 0.288,-0.091 0.522,-0.273 l 0.151,0.254 c -0.068,0.114 -0.18,0.224 -0.337,0.332 -0.315,0.215 -0.602,0.322 -0.859,0.322 z m 5.29,-5.068 C 64.652,5.146 64.494,5.108 64.312,5.108 c -0.183,0 -0.349,0.044 -0.501,0.13 -0.151,0.086 -0.286,0.203 -0.405,0.351 -0.119,0.149 -0.222,0.32 -0.31,0.515 -0.241,0.551 -0.361,1.171 -0.361,1.861 0,0.84 0.208,1.377 0.625,1.611 0.133,0.078 0.291,0.117 0.473,0.117 0.183,0 0.349,-0.043 0.501,-0.129 0.151,-0.086 0.286,-0.203 0.405,-0.352 0.119,-0.148 0.222,-0.32 0.31,-0.515 0.241,-0.55 0.361,-1.17 0.361,-1.86 0,-0.84 -0.208,-1.379 -0.625,-1.616 z m -0.351,4.931 c -0.244,0.091 -0.512,0.137 -0.803,0.137 -0.292,0 -0.556,-0.05 -0.794,-0.151 -0.742,-0.316 -1.113,-1.042 -1.113,-2.178 0,-0.869 0.252,-1.651 0.757,-2.344 0.335,-0.459 0.747,-0.779 1.235,-0.962 0.244,-0.094 0.512,-0.141 0.803,-0.141 0.292,0 0.556,0.05 0.794,0.151 0.237,0.101 0.439,0.247 0.605,0.439 0.342,0.401 0.513,0.969 0.513,1.704 0,0.902 -0.252,1.695 -0.757,2.378 -0.339,0.456 -0.752,0.779 -1.24,0.967 z m 6.023,-4.922 -1.265,0 -0.405,3.057 c -0.056,0.394 -0.083,0.66 -0.083,0.798 0,0.139 0.005,0.237 0.017,0.296 0.011,0.058 0.032,0.104 0.061,0.136 0.052,0.062 0.136,0.093 0.251,0.093 0.116,0 0.218,-0.014 0.306,-0.041 0.087,-0.028 0.175,-0.063 0.263,-0.105 0.182,-0.088 0.332,-0.176 0.45,-0.264 l 0.087,0.381 c -0.221,0.27 -0.587,0.483 -1.098,0.64 -0.153,0.045 -0.298,0.068 -0.435,0.068 -0.596,0 -0.893,-0.291 -0.893,-0.874 l 0,-0.054 c 0,-0.101 0.019,-0.299 0.058,-0.596 l 0.444,-3.535 -0.585,0 0.097,-0.424 0.601,-0.23 C 68.513,4.355 68.73,3.922 68.977,3.277 l 0.464,0 -0.166,1.275 1.279,0 -0.097,0.678 z M 74.155,5.221 C 74.022,5.146 73.864,5.108 73.682,5.108 c -0.183,0 -0.349,0.044 -0.501,0.13 -0.151,0.086 -0.286,0.203 -0.405,0.351 -0.119,0.149 -0.222,0.32 -0.31,0.515 -0.241,0.551 -0.361,1.171 -0.361,1.861 0,0.84 0.208,1.377 0.625,1.611 0.133,0.078 0.291,0.117 0.473,0.117 0.182,0 0.349,-0.043 0.501,-0.129 0.151,-0.086 0.286,-0.203 0.405,-0.352 0.119,-0.148 0.222,-0.32 0.31,-0.515 0.241,-0.55 0.361,-1.17 0.361,-1.86 0,-0.84 -0.208,-1.379 -0.625,-1.616 z m -0.351,4.931 c -0.244,0.091 -0.512,0.137 -0.803,0.137 -0.292,0 -0.556,-0.05 -0.794,-0.151 -0.742,-0.316 -1.113,-1.042 -1.113,-2.178 0,-0.869 0.252,-1.651 0.757,-2.344 0.335,-0.459 0.747,-0.779 1.235,-0.962 0.244,-0.094 0.512,-0.141 0.803,-0.141 0.292,0 0.556,0.05 0.794,0.151 0.237,0.101 0.439,0.247 0.605,0.439 0.342,0.401 0.513,0.969 0.513,1.704 0,0.902 -0.252,1.695 -0.757,2.378 -0.339,0.456 -0.752,0.779 -1.24,0.967 z m 5.588,-4.961 c -0.13,-0.032 -0.26,-0.049 -0.388,-0.049 -0.129,0 -0.243,0.01 -0.344,0.03 -0.101,0.019 -0.194,0.055 -0.279,0.107 -0.218,0.134 -0.327,0.345 -0.327,0.635 0,0.358 0.259,0.734 0.777,1.128 0.332,0.257 0.564,0.47 0.698,0.64 0.263,0.341 0.395,0.666 0.395,0.974 0,0.307 -0.053,0.558 -0.158,0.752 -0.106,0.193 -0.249,0.355 -0.428,0.485 -0.358,0.264 -0.807,0.396 -1.347,0.396 -0.482,0 -0.889,-0.06 -1.221,-0.181 -0.101,-0.035 -0.173,-0.071 -0.215,-0.107 l 0.176,-0.737 c 0.221,0.153 0.518,0.263 0.889,0.332 0.133,0.022 0.262,0.034 0.388,0.034 0.125,0 0.245,-0.007 0.359,-0.02 0.114,-0.013 0.219,-0.044 0.317,-0.093 0.218,-0.107 0.327,-0.304 0.327,-0.59 0,-0.336 -0.18,-0.65 -0.542,-0.943 C 78.365,7.9 78.265,7.823 78.169,7.753 78.073,7.682 77.966,7.595 77.849,7.489 77.732,7.383 77.62,7.26 77.512,7.12 77.258,6.782 77.131,6.465 77.131,6.17 c 0,-0.294 0.052,-0.539 0.154,-0.735 0.103,-0.195 0.24,-0.361 0.413,-0.498 0.361,-0.283 0.799,-0.424 1.313,-0.424 0.384,0 0.679,0.025 0.884,0.075 0.205,0.051 0.327,0.086 0.366,0.105 L 80.076,5.509 C 79.991,5.385 79.763,5.279 79.392,5.191 Z m 5.647,5.098 c -0.423,0 -0.623,-0.213 -0.601,-0.64 C 84.455,9.37 84.493,9.064 84.553,8.732 84.613,8.4 84.656,8.163 84.68,8.023 84.705,7.883 84.733,7.73 84.766,7.562 84.798,7.394 84.827,7.223 84.853,7.047 84.919,6.65 84.951,6.339 84.951,6.114 84.951,5.89 84.936,5.727 84.907,5.626 84.878,5.525 84.837,5.448 84.785,5.396 84.707,5.322 84.591,5.284 84.436,5.284 c -0.155,0 -0.305,0.032 -0.452,0.095 -0.146,0.064 -0.293,0.151 -0.439,0.262 -0.316,0.237 -0.594,0.533 -0.835,0.888 l -0.488,3.662 -0.948,0 0.943,-7.236 -0.576,-0.21 0.083,-0.405 1.298,-0.205 0.254,0.131 -0.464,3.477 c 0.43,-0.576 0.912,-0.955 1.446,-1.138 0.185,-0.061 0.368,-0.092 0.549,-0.092 0.181,0 0.339,0.025 0.474,0.075 0.135,0.051 0.249,0.134 0.344,0.252 0.202,0.241 0.303,0.623 0.303,1.147 0,0.29 -0.036,0.619 -0.108,0.986 l -0.141,0.753 -0.127,0.776 c -0.088,0.553 -0.12,0.884 -0.096,0.991 0.025,0.108 0.06,0.161 0.105,0.161 0.114,0 0.288,-0.091 0.523,-0.273 l 0.151,0.254 c -0.068,0.114 -0.18,0.224 -0.337,0.332 -0.315,0.215 -0.602,0.322 -0.859,0.322 z m 5.29,-5.068 C 90.196,5.146 90.038,5.108 89.856,5.108 c -0.183,0 -0.349,0.044 -0.501,0.13 -0.151,0.086 -0.286,0.203 -0.405,0.351 -0.119,0.149 -0.222,0.32 -0.31,0.515 -0.241,0.551 -0.361,1.171 -0.361,1.861 0,0.84 0.208,1.377 0.625,1.611 0.133,0.078 0.291,0.117 0.473,0.117 0.182,0 0.349,-0.043 0.501,-0.129 0.151,-0.086 0.286,-0.203 0.405,-0.352 0.119,-0.148 0.222,-0.32 0.31,-0.515 0.241,-0.55 0.361,-1.17 0.361,-1.86 0,-0.84 -0.208,-1.379 -0.625,-1.616 z m -0.351,4.931 c -0.244,0.091 -0.512,0.137 -0.803,0.137 -0.292,0 -0.556,-0.05 -0.794,-0.151 -0.742,-0.316 -1.113,-1.042 -1.113,-2.178 0,-0.869 0.252,-1.651 0.757,-2.344 0.335,-0.459 0.747,-0.779 1.235,-0.962 0.244,-0.094 0.512,-0.141 0.803,-0.141 0.292,0 0.556,0.05 0.794,0.151 0.237,0.101 0.439,0.247 0.605,0.439 0.342,0.401 0.513,0.969 0.513,1.704 0,0.902 -0.252,1.695 -0.757,2.378 -0.339,0.456 -0.752,0.779 -1.24,0.967 z m 6.56,-4.558 C 96.391,5.339 96.191,5.211 95.937,5.211 c -0.374,0 -0.744,0.181 -1.108,0.542 -0.101,0.098 -0.187,0.195 -0.259,0.293 l -0.483,3.476 c 0.169,0.118 0.386,0.176 0.652,0.176 0.265,0 0.49,-0.046 0.676,-0.139 0.185,-0.093 0.35,-0.218 0.495,-0.376 0.145,-0.158 0.27,-0.339 0.376,-0.542 0.106,-0.203 0.193,-0.416 0.262,-0.637 0.139,-0.443 0.21,-0.891 0.21,-1.345 0,-0.454 -0.074,-0.809 -0.22,-1.065 z m -0.977,4.529 c -0.283,0.111 -0.555,0.166 -0.815,0.166 -0.261,0 -0.513,-0.026 -0.757,-0.078 l -0.347,2.519 -0.927,0 0.991,-7.329 -0.532,-0.249 0.087,-0.385 1.28,-0.254 0.229,0.117 -0.088,0.6 c 0.397,-0.478 0.869,-0.717 1.416,-0.717 0.547,0 0.965,0.2 1.255,0.6 0.27,0.375 0.406,0.879 0.406,1.514 0,0.833 -0.274,1.631 -0.821,2.392 -0.374,0.525 -0.833,0.892 -1.377,1.104 z m 14.238,-6.802 -2.915,6.919 -0.986,0 -0.566,-5.029 -1.89,5.029 -0.982,0 -0.957,-6.919 -0.6,-0.107 0.058,-0.493 2.276,0 -0.054,0.493 -0.762,0.088 0.577,4.76 0.175,1.299 0.274,-0.967 1.684,-4.497 -0.068,-0.59 -0.576,-0.093 0.054,-0.493 2.324,0 -0.098,0.493 -0.732,0.097 0.512,4.751 0.088,1.299 0.362,-1.113 1.987,-4.922 -0.64,-0.112 0.054,-0.493 2.06,0 -0.073,0.493 -0.586,0.107 z m 3.269,1.936 c -0.114,-0.115 -0.258,-0.173 -0.432,-0.173 -0.174,0 -0.331,0.038 -0.471,0.115 -0.14,0.076 -0.266,0.178 -0.379,0.305 -0.112,0.127 -0.213,0.272 -0.302,0.434 -0.09,0.163 -0.167,0.331 -0.232,0.503 -0.117,0.326 -0.195,0.648 -0.235,0.967 0.476,-0.023 0.944,-0.169 1.407,-0.439 0.328,-0.189 0.563,-0.42 0.703,-0.694 0.075,-0.14 0.112,-0.315 0.112,-0.527 0,-0.212 -0.057,-0.375 -0.171,-0.491 z m 0.537,1.716 c -0.188,0.163 -0.402,0.304 -0.639,0.423 -0.238,0.119 -0.477,0.217 -0.718,0.295 -0.485,0.163 -0.903,0.248 -1.255,0.254 -0.006,0.069 -0.01,0.132 -0.01,0.191 0,0.058 0.002,0.128 0.005,0.21 0.003,0.081 0.02,0.184 0.049,0.307 0.029,0.124 0.07,0.244 0.122,0.359 0.052,0.116 0.119,0.218 0.2,0.305 0.183,0.196 0.41,0.293 0.684,0.293 0.596,0 1.149,-0.237 1.66,-0.712 l 0.225,0.405 c -0.163,0.234 -0.414,0.446 -0.752,0.634 -0.407,0.235 -0.804,0.352 -1.189,0.352 -0.386,0 -0.703,-0.062 -0.95,-0.185 -0.488,-0.241 -0.811,-0.64 -0.967,-1.197 -0.065,-0.241 -0.097,-0.431 -0.097,-0.571 0,-0.14 0.002,-0.292 0.007,-0.457 0.005,-0.164 0.042,-0.394 0.112,-0.691 0.07,-0.296 0.167,-0.577 0.291,-0.842 0.123,-0.265 0.271,-0.51 0.442,-0.735 0.171,-0.224 0.362,-0.418 0.573,-0.581 0.45,-0.345 0.935,-0.517 1.455,-0.517 0.677,0 1.11,0.246 1.299,0.737 0.059,0.15 0.088,0.331 0.088,0.542 0,0.212 -0.058,0.421 -0.176,0.627 -0.117,0.207 -0.27,0.392 -0.459,0.554 z m 5.33,-1.379 c -0.147,-0.255 -0.347,-0.383 -0.601,-0.383 -0.273,0 -0.555,0.106 -0.844,0.317 -0.241,0.176 -0.438,0.381 -0.591,0.615 l -0.45,3.35 c 0.173,0.137 0.397,0.205 0.672,0.205 0.275,0 0.505,-0.046 0.691,-0.139 0.185,-0.093 0.351,-0.218 0.495,-0.376 0.145,-0.158 0.271,-0.339 0.376,-0.542 0.106,-0.203 0.193,-0.416 0.262,-0.637 0.14,-0.443 0.21,-0.891 0.21,-1.345 0,-0.454 -0.074,-0.809 -0.22,-1.065 z m -1.929,4.695 c -0.351,0 -0.729,-0.073 -1.133,-0.22 l -0.478,0.22 0.967,-7.344 -0.464,-0.21 0.102,-0.41 1.172,-0.19 0.249,0.131 -0.41,3.052 c 0.283,-0.364 0.625,-0.61 1.025,-0.737 0.144,-0.046 0.327,-0.068 0.55,-0.068 0.223,0 0.438,0.053 0.647,0.158 0.208,0.106 0.381,0.254 0.517,0.442 0.27,0.375 0.406,0.879 0.406,1.514 0,0.833 -0.274,1.631 -0.821,2.392 -0.605,0.847 -1.382,1.27 -2.329,1.27 z m 6.721,-5.098 c -0.13,-0.032 -0.259,-0.049 -0.388,-0.049 -0.129,0 -0.243,0.01 -0.344,0.03 -0.101,0.019 -0.194,0.055 -0.278,0.107 -0.219,0.134 -0.328,0.345 -0.328,0.635 0,0.358 0.259,0.734 0.777,1.128 0.332,0.257 0.564,0.47 0.698,0.64 0.264,0.341 0.395,0.666 0.395,0.974 0,0.307 -0.052,0.558 -0.158,0.752 -0.106,0.193 -0.248,0.355 -0.427,0.485 -0.359,0.264 -0.808,0.396 -1.348,0.396 -0.482,0 -0.889,-0.06 -1.221,-0.181 -0.101,-0.035 -0.172,-0.071 -0.215,-0.107 l 0.176,-0.737 c 0.221,0.153 0.518,0.263 0.889,0.332 0.133,0.022 0.263,0.034 0.388,0.034 0.125,0 0.245,-0.007 0.359,-0.02 0.114,-0.013 0.22,-0.044 0.317,-0.093 0.218,-0.107 0.327,-0.304 0.327,-0.59 0,-0.336 -0.18,-0.65 -0.542,-0.943 C 122.7,7.9 122.6,7.823 122.504,7.753 122.408,7.682 122.302,7.595 122.184,7.489 122.067,7.383 121.955,7.26 121.847,7.12 c -0.254,-0.338 -0.381,-0.655 -0.381,-0.95 0,-0.294 0.052,-0.539 0.154,-0.735 0.103,-0.195 0.24,-0.361 0.413,-0.498 0.361,-0.283 0.799,-0.424 1.313,-0.424 0.384,0 0.679,0.025 0.884,0.075 0.205,0.051 0.327,0.086 0.366,0.105 l -0.185,0.816 c -0.085,-0.124 -0.313,-0.23 -0.684,-0.318 z m 3.787,-0.561 -0.679,4.648 c -0.01,0.062 -0.015,0.116 -0.015,0.161 0,0.14 0.041,0.21 0.122,0.21 0.121,0 0.295,-0.109 0.523,-0.327 l 0.156,0.259 c -0.163,0.254 -0.421,0.461 -0.776,0.62 -0.134,0.059 -0.274,0.088 -0.42,0.088 -0.404,0 -0.606,-0.185 -0.606,-0.557 0,-0.221 0.054,-0.667 0.162,-1.338 l 0.454,-2.988 -0.723,-0.249 0.088,-0.395 1.475,-0.249 0.239,0.117 z m -0.366,-1.216 c -0.085,0 -0.163,-0.016 -0.235,-0.049 -0.224,-0.097 -0.337,-0.268 -0.337,-0.513 0,-0.195 0.08,-0.366 0.24,-0.512 0.149,-0.14 0.288,-0.21 0.415,-0.21 0.127,0 0.227,0.015 0.302,0.044 0.228,0.094 0.342,0.258 0.342,0.493 0,0.199 -0.076,0.376 -0.229,0.532 -0.147,0.143 -0.313,0.215 -0.498,0.215 z m 4.587,1.816 -1.265,0 -0.405,3.057 c -0.055,0.394 -0.083,0.66 -0.083,0.798 0,0.139 0.006,0.237 0.017,0.296 0.011,0.058 0.032,0.104 0.061,0.136 0.052,0.062 0.136,0.093 0.252,0.093 0.115,0 0.217,-0.014 0.305,-0.041 0.088,-0.028 0.175,-0.063 0.263,-0.105 0.183,-0.088 0.332,-0.176 0.45,-0.264 l 0.087,0.381 c -0.221,0.27 -0.587,0.483 -1.098,0.64 -0.153,0.045 -0.298,0.068 -0.435,0.068 -0.595,0 -0.893,-0.291 -0.893,-0.874 l 0,-0.054 c 0,-0.101 0.019,-0.299 0.058,-0.596 l 0.445,-3.535 -0.586,0 0.097,-0.424 0.601,-0.23 c 0.185,-0.221 0.402,-0.654 0.649,-1.299 l 0.464,0 -0.166,1.275 1.28,0 -0.098,0.678 z m 3.728,0.027 c -0.114,-0.115 -0.258,-0.173 -0.432,-0.173 -0.175,0 -0.332,0.038 -0.472,0.115 -0.14,0.076 -0.266,0.178 -0.378,0.305 -0.112,0.127 -0.213,0.272 -0.303,0.434 -0.089,0.163 -0.167,0.331 -0.232,0.503 -0.117,0.326 -0.195,0.648 -0.234,0.967 0.475,-0.023 0.944,-0.169 1.406,-0.439 0.329,-0.189 0.563,-0.42 0.703,-0.694 0.075,-0.14 0.113,-0.315 0.113,-0.527 0,-0.212 -0.057,-0.375 -0.171,-0.491 z M 136,6.973 c -0.189,0.163 -0.402,0.304 -0.64,0.423 -0.237,0.119 -0.477,0.217 -0.718,0.295 -0.485,0.163 -0.903,0.248 -1.254,0.254 -0.007,0.069 -0.01,0.132 -0.01,0.191 0,0.058 0.001,0.128 0.005,0.21 0.003,0.081 0.019,0.184 0.049,0.307 0.029,0.124 0.069,0.244 0.122,0.359 0.052,0.116 0.118,0.218 0.2,0.305 0.182,0.196 0.41,0.293 0.683,0.293 0.596,0 1.149,-0.237 1.661,-0.712 l 0.224,0.405 c -0.163,0.234 -0.413,0.446 -0.752,0.634 -0.407,0.235 -0.803,0.352 -1.189,0.352 -0.386,0 -0.702,-0.062 -0.949,-0.185 -0.489,-0.241 -0.811,-0.64 -0.967,-1.197 -0.065,-0.241 -0.098,-0.431 -0.098,-0.571 0,-0.14 0.003,-0.292 0.007,-0.457 0.005,-0.164 0.043,-0.394 0.113,-0.691 0.07,-0.296 0.166,-0.577 0.29,-0.842 0.124,-0.265 0.271,-0.51 0.442,-0.735 0.171,-0.224 0.362,-0.418 0.574,-0.581 0.449,-0.345 0.934,-0.517 1.455,-0.517 0.677,0 1.11,0.246 1.299,0.737 0.058,0.15 0.088,0.331 0.088,0.542 0,0.212 -0.059,0.421 -0.176,0.627 -0.117,0.207 -0.27,0.392 -0.459,0.554 z m 7.124,-1.743 -1.265,0 -0.405,3.057 c -0.056,0.394 -0.083,0.66 -0.083,0.798 0,0.139 0.005,0.237 0.017,0.296 0.011,0.058 0.032,0.104 0.061,0.136 0.052,0.062 0.136,0.093 0.251,0.093 0.116,0 0.218,-0.014 0.306,-0.041 0.087,-0.028 0.175,-0.063 0.263,-0.105 0.182,-0.088 0.332,-0.176 0.449,-0.264 l 0.088,0.381 c -0.221,0.27 -0.587,0.483 -1.098,0.64 -0.153,0.045 -0.298,0.068 -0.435,0.068 -0.596,0 -0.893,-0.291 -0.893,-0.874 l 0,-0.054 c 0,-0.101 0.019,-0.299 0.058,-0.596 l 0.445,-3.535 -0.586,0 0.097,-0.424 0.601,-0.23 c 0.185,-0.221 0.402,-0.654 0.649,-1.299 l 0.464,0 -0.166,1.275 1.279,0 -0.097,0.678 z m 3.728,0.027 c -0.114,-0.115 -0.258,-0.173 -0.432,-0.173 -0.175,0 -0.332,0.038 -0.472,0.115 -0.14,0.076 -0.266,0.178 -0.378,0.305 -0.112,0.127 -0.213,0.272 -0.303,0.434 -0.089,0.163 -0.167,0.331 -0.232,0.503 -0.117,0.326 -0.195,0.648 -0.234,0.967 0.475,-0.023 0.944,-0.169 1.406,-0.439 0.329,-0.189 0.563,-0.42 0.703,-0.694 0.075,-0.14 0.113,-0.315 0.113,-0.527 0,-0.212 -0.057,-0.375 -0.171,-0.491 z m 0.537,1.716 c -0.189,0.163 -0.402,0.304 -0.64,0.423 -0.238,0.119 -0.477,0.217 -0.718,0.295 -0.485,0.163 -0.903,0.248 -1.255,0.254 -0.006,0.069 -0.009,0.132 -0.009,0.191 0,0.058 0.001,0.128 0.005,0.21 0.003,0.081 0.019,0.184 0.048,0.307 0.03,0.124 0.07,0.244 0.122,0.359 0.052,0.116 0.119,0.218 0.201,0.305 0.182,0.196 0.41,0.293 0.683,0.293 0.596,0 1.149,-0.237 1.66,-0.712 l 0.225,0.405 c -0.163,0.234 -0.413,0.446 -0.752,0.634 -0.407,0.235 -0.803,0.352 -1.189,0.352 -0.386,0 -0.702,-0.062 -0.95,-0.185 -0.488,-0.241 -0.81,-0.64 -0.966,-1.197 -0.066,-0.241 -0.098,-0.431 -0.098,-0.571 0,-0.14 0.002,-0.292 0.007,-0.457 0.005,-0.164 0.043,-0.394 0.113,-0.691 0.07,-0.296 0.166,-0.577 0.29,-0.842 0.124,-0.265 0.271,-0.51 0.442,-0.735 0.171,-0.224 0.362,-0.418 0.574,-0.581 0.449,-0.345 0.934,-0.517 1.455,-0.517 0.677,0 1.11,0.246 1.299,0.737 0.058,0.15 0.088,0.331 0.088,0.542 0,0.212 -0.059,0.421 -0.176,0.627 -0.117,0.207 -0.271,0.392 -0.459,0.554 z m 8.669,3.316 c -0.387,0 -0.581,-0.19 -0.581,-0.571 0,-0.274 0.039,-0.664 0.117,-1.172 l 0.161,-1.001 c 0.108,-0.671 0.162,-1.132 0.162,-1.385 0,-0.252 -0.014,-0.428 -0.042,-0.529 -0.028,-0.101 -0.064,-0.176 -0.11,-0.225 -0.068,-0.075 -0.173,-0.112 -0.315,-0.112 -0.141,0 -0.28,0.031 -0.415,0.093 -0.135,0.061 -0.273,0.146 -0.412,0.254 -0.277,0.214 -0.539,0.498 -0.787,0.849 -0.029,0.355 -0.079,0.767 -0.151,1.236 l -0.312,2.465 -0.962,0 0.273,-2.163 0.073,-0.464 c 0.085,-0.592 0.127,-1.038 0.127,-1.337 0,-0.3 -0.011,-0.5 -0.034,-0.601 -0.023,-0.101 -0.057,-0.178 -0.102,-0.23 -0.069,-0.074 -0.183,-0.112 -0.342,-0.112 -0.16,0 -0.312,0.031 -0.457,0.093 -0.145,0.062 -0.29,0.148 -0.437,0.259 -0.309,0.234 -0.587,0.524 -0.835,0.869 l -0.498,3.686 -0.952,0 0.635,-4.702 -0.484,-0.288 0.088,-0.434 1.182,-0.254 0.234,0.117 -0.092,1.035 c 0.432,-0.531 0.916,-0.884 1.45,-1.06 0.179,-0.061 0.352,-0.092 0.52,-0.092 0.167,0 0.314,0.021 0.439,0.063 0.126,0.042 0.234,0.111 0.325,0.205 0.185,0.192 0.295,0.505 0.327,0.938 0.426,-0.56 0.892,-0.931 1.397,-1.114 0.175,-0.061 0.349,-0.092 0.52,-0.092 0.17,0 0.323,0.027 0.459,0.083 0.135,0.055 0.251,0.143 0.349,0.263 0.208,0.251 0.312,0.627 0.312,1.128 0,0.258 -0.032,0.575 -0.097,0.952 -0.199,1.215 -0.306,1.937 -0.32,2.168 -0.015,0.232 -0.016,0.38 -0.003,0.445 0.013,0.065 0.043,0.097 0.088,0.097 0.121,0 0.298,-0.107 0.532,-0.322 l 0.152,0.254 c -0.082,0.127 -0.196,0.246 -0.342,0.356 -0.303,0.235 -0.583,0.352 -0.84,0.352 z m 5.813,-4.695 c -0.147,-0.255 -0.347,-0.383 -0.601,-0.383 -0.374,0 -0.743,0.181 -1.108,0.542 -0.101,0.098 -0.187,0.195 -0.259,0.293 l -0.483,3.476 c 0.169,0.118 0.386,0.176 0.652,0.176 0.265,0 0.49,-0.046 0.676,-0.139 0.186,-0.093 0.351,-0.218 0.496,-0.376 0.144,-0.158 0.27,-0.339 0.375,-0.542 0.106,-0.203 0.193,-0.416 0.262,-0.637 0.14,-0.443 0.21,-0.891 0.21,-1.345 0,-0.454 -0.074,-0.809 -0.22,-1.065 z m -0.977,4.529 c -0.283,0.111 -0.555,0.166 -0.815,0.166 -0.26,0 -0.513,-0.026 -0.757,-0.078 l -0.346,2.519 -0.928,0 0.991,-7.329 -0.532,-0.249 0.088,-0.385 1.279,-0.254 0.229,0.117 -0.087,0.6 c 0.397,-0.478 0.869,-0.717 1.416,-0.717 0.546,0 0.965,0.2 1.254,0.6 0.271,0.375 0.406,0.879 0.406,1.514 0,0.833 -0.274,1.631 -0.821,2.392 -0.374,0.525 -0.833,0.892 -1.377,1.104 z m 4.48,-0.474 c 0.121,0 0.297,-0.107 0.528,-0.322 l 0.151,0.254 c -0.065,0.117 -0.174,0.234 -0.327,0.352 -0.316,0.237 -0.585,0.356 -0.808,0.356 -0.223,0 -0.379,-0.05 -0.469,-0.151 -0.09,-0.101 -0.134,-0.27 -0.134,-0.508 0,-0.127 0.009,-0.252 0.029,-0.376 l 0.899,-6.299 -0.601,-0.21 0.102,-0.405 1.28,-0.205 0.234,0.131 -0.986,7.012 c -0.036,0.248 -0.002,0.371 0.102,0.371 z m 4.758,-4.541 c -0.253,0 -0.476,0.046 -0.666,0.137 -0.19,0.091 -0.361,0.213 -0.51,0.366 -0.15,0.153 -0.279,0.33 -0.388,0.53 -0.11,0.2 -0.2,0.41 -0.271,0.627 -0.14,0.427 -0.21,0.809 -0.21,1.145 0,0.337 0.017,0.601 0.053,0.792 0.036,0.19 0.088,0.35 0.157,0.48 0.139,0.274 0.333,0.411 0.581,0.411 0.416,0 0.804,-0.186 1.162,-0.557 0.101,-0.104 0.185,-0.205 0.254,-0.303 l 0.449,-3.467 C 170.59,5.162 170.386,5.108 170.132,5.108 Z m 1.219,4.541 c 0.07,0 0.197,-0.074 0.383,-0.224 l 0.151,0.259 c -0.055,0.1 -0.154,0.201 -0.297,0.302 -0.29,0.202 -0.554,0.303 -0.791,0.303 -0.414,0 -0.621,-0.197 -0.621,-0.591 0,-0.023 0,-0.045 0,-0.068 l 0.01,-0.103 c -0.423,0.508 -0.919,0.762 -1.489,0.762 -0.527,0 -0.933,-0.199 -1.216,-0.596 -0.264,-0.371 -0.395,-0.875 -0.395,-1.513 0,-0.524 0.125,-1.065 0.376,-1.621 0.416,-0.931 1.035,-1.556 1.855,-1.876 0.286,-0.113 0.589,-0.17 0.908,-0.17 0.319,0 0.65,0.057 0.992,0.17 l 0.581,-0.166 -0.64,4.761 c -0.016,0.134 -0.006,0.229 0.032,0.286 0.037,0.057 0.091,0.085 0.161,0.085 z m 4.634,-4.419 -1.265,0 -0.405,3.057 c -0.056,0.394 -0.083,0.66 -0.083,0.798 0,0.139 0.005,0.237 0.017,0.296 0.011,0.058 0.031,0.104 0.061,0.136 0.052,0.062 0.136,0.093 0.251,0.093 0.116,0 0.217,-0.014 0.305,-0.041 0.088,-0.028 0.176,-0.063 0.264,-0.105 0.182,-0.088 0.332,-0.176 0.449,-0.264 l 0.088,0.381 c -0.221,0.27 -0.588,0.483 -1.099,0.64 -0.153,0.045 -0.297,0.068 -0.434,0.068 -0.596,0 -0.894,-0.291 -0.894,-0.874 l 0,-0.054 c 0,-0.101 0.02,-0.299 0.059,-0.596 l 0.444,-3.535 -0.586,0 0.098,-0.424 0.601,-0.23 c 0.185,-0.221 0.402,-0.654 0.649,-1.299 l 0.464,0 -0.166,1.275 1.279,0 -0.097,0.678 z m 3.727,0.027 c -0.114,-0.115 -0.258,-0.173 -0.432,-0.173 -0.174,0 -0.331,0.038 -0.471,0.115 -0.14,0.076 -0.266,0.178 -0.378,0.305 -0.113,0.127 -0.214,0.272 -0.303,0.434 -0.09,0.163 -0.167,0.331 -0.232,0.503 -0.117,0.326 -0.195,0.648 -0.234,0.967 0.475,-0.023 0.944,-0.169 1.406,-0.439 0.329,-0.189 0.563,-0.42 0.703,-0.694 0.075,-0.14 0.112,-0.315 0.112,-0.527 0,-0.212 -0.057,-0.375 -0.171,-0.491 z m 0.997,1.162 c -0.118,0.207 -0.271,0.392 -0.459,0.554 -0.189,0.163 -0.403,0.304 -0.64,0.423 -0.238,0.119 -0.477,0.217 -0.718,0.295 -0.485,0.163 -0.903,0.248 -1.255,0.254 -0.006,0.069 -0.01,0.132 -0.01,0.191 0,0.058 0.002,0.128 0.005,0.21 0.004,0.081 0.02,0.184 0.049,0.307 0.029,0.124 0.07,0.244 0.122,0.359 0.052,0.116 0.119,0.218 0.2,0.305 0.183,0.196 0.411,0.293 0.684,0.293 0.596,0 1.149,-0.237 1.66,-0.712 l 0.225,0.405 c -0.163,0.234 -0.414,0.446 -0.752,0.634 -0.407,0.235 -0.803,0.352 -1.189,0.352 -0.386,0 -0.703,-0.062 -0.95,-0.185 -0.488,-0.241 -0.81,-0.64 -0.967,-1.197 -0.065,-0.241 -0.097,-0.431 -0.097,-0.571 0,-0.14 0.002,-0.292 0.007,-0.457 0.005,-0.164 0.042,-0.394 0.112,-0.691 0.07,-0.296 0.167,-0.577 0.291,-0.842 0.124,-0.265 0.271,-0.51 0.442,-0.735 0.171,-0.224 0.362,-0.418 0.573,-0.581 0.45,-0.345 0.935,-0.517 1.456,-0.517 0.677,0 1.11,0.246 1.298,0.737 0.059,0.15 0.088,0.331 0.088,0.542 0,0.212 -0.058,0.421 -0.175,0.627 z"
     style="fill:#ffffff;fill-opacity:1" />
  <path
     id="path8"
     d="M 8.636,2.289 C 8.425,2.125 8.144,2.043 7.792,2.043 7.183,2.043 6.597,2.422 6.035,3.18 l -1.242,8.883 c 0.288,0.109 0.732,0.164 1.33,0.164 0.597,0 1.121,-0.206 1.57,-0.616 C 8.142,11.201 8.503,10.66 8.777,9.988 9.308,8.707 9.574,7.07 9.574,5.078 9.574,3.695 9.261,2.766 8.636,2.289 Z m 2.836,9.012 C 9.988,13.004 8.074,13.855 5.73,13.855 5.324,13.855 4.929,13.82 4.546,13.75 l -0.832,5.965 -3.726,0 L 2.332,2.113 0.96,1.527 1.183,0.602 5.789,-0.008 6.398,0.274 6.281,1.258 c 0.883,-0.844 1.968,-1.266 3.258,-1.266 2.023,0 3.3,0.973 3.832,2.918 0.171,0.633 0.257,1.459 0.257,2.479 0,1.019 -0.187,2.062 -0.562,3.129 -0.375,1.066 -0.906,1.994 -1.594,2.783 z M 21.785,1.609 c -1.461,0 -2.305,1.758 -2.532,5.274 0.828,-0.055 1.594,-0.383 2.297,-0.985 0.797,-0.687 1.196,-1.574 1.196,-2.66 0,-1.086 -0.321,-1.629 -0.961,-1.629 z m 3.55,4.407 c -0.375,0.39 -0.81,0.728 -1.306,1.013 -0.496,0.286 -1.018,0.518 -1.565,0.698 -1.078,0.359 -2.148,0.546 -3.211,0.562 0,1.219 0.196,2.102 0.586,2.648 0.391,0.547 0.926,0.821 1.606,0.821 1.39,0 2.555,-0.61 3.492,-1.828 l 0.75,1.207 c -0.727,1.133 -1.883,1.945 -3.469,2.437 -0.609,0.188 -1.258,0.281 -1.945,0.281 -0.688,0 -1.279,-0.068 -1.775,-0.205 -0.497,-0.136 -0.936,-0.326 -1.319,-0.568 -0.383,-0.242 -0.707,-0.529 -0.972,-0.861 -0.266,-0.332 -0.485,-0.693 -0.657,-1.084 -0.336,-0.766 -0.504,-1.618 -0.504,-2.555 0,-0.023 0,-0.047 0,-0.07 0,-2.445 0.731,-4.477 2.192,-6.094 1.445,-1.617 3.25,-2.426 5.414,-2.426 1.875,0 3.074,0.59 3.598,1.77 0.171,0.398 0.257,0.863 0.257,1.394 0,0.532 -0.101,1.043 -0.304,1.536 -0.204,0.492 -0.493,0.933 -0.868,1.324 z m 10.969,4.101 c 0.281,0.571 0.525,0.948 0.733,1.131 0.207,0.184 0.42,0.275 0.638,0.275 0.219,0 0.539,-0.148 0.961,-0.445 l 0.528,0.985 c -0.415,0.648 -1.219,1.167 -2.415,1.558 -0.476,0.156 -1.019,0.234 -1.628,0.234 -1.094,0 -1.789,-0.41 -2.086,-1.23 l -1.161,-3.375 -2.73,4.371 -3.691,0 5.425,-6.879 -1.933,-3.679 -0.199,-0.34 C 28.511,2.301 28.273,2.09 28.031,2.09 c -0.375,0 -0.688,0.074 -0.938,0.222 L 26.636,1.328 c 0.375,-0.484 1.109,-0.871 2.203,-1.16 0.414,-0.117 0.907,-0.176 1.477,-0.176 1.203,0 1.934,0.41 2.191,1.231 l 0.996,2.953 2.602,-4.09 3.574,0 -5.238,6.656 1.863,3.375 z"
     style="fill:#e7526b;fill-opacity:1" />
</svg>
